<svg width="143" height="143" viewBox="0 0 143 143" fill="none" xmlns="http://www.w3.org/2000/svg">
<g id="encrypted_24dp_E8EAED_FILL0_wght400_GRAD0_opsz24 1">
<path id="Vector" d="M62.5624 89.3751H80.4374L77.0114 70.1595C78.9975 69.1664 80.5616 67.7265 81.7036 65.8397C82.8456 63.9529 83.4166 61.8674 83.4166 59.5834C83.4166 56.3063 82.2497 53.5009 79.9161 51.1673C77.5824 48.8336 74.777 47.6667 71.4999 47.6667C68.2228 47.6667 65.4175 48.8336 63.0838 51.1673C60.7501 53.5009 59.5833 56.3063 59.5833 59.5834C59.5833 61.8674 60.1543 63.9529 61.2963 65.8397C62.4383 67.7265 64.0023 69.1664 65.9885 70.1595L62.5624 89.3751ZM71.4999 131.083C57.6964 127.608 46.3011 119.688 37.314 107.325C28.3268 94.961 23.8333 81.232 23.8333 66.1376V29.7917L71.4999 11.9167L119.167 29.7917V66.1376C119.167 81.232 114.673 94.961 105.686 107.325C96.6987 119.688 85.3034 127.608 71.4999 131.083ZM71.4999 118.571C81.8277 115.294 90.368 108.74 97.1208 98.9084C103.874 89.0772 107.25 78.1536 107.25 66.1376V37.9845L71.4999 24.5782L35.7499 37.9845V66.1376C35.7499 78.1536 39.1263 89.0772 45.8791 98.9084C52.6319 108.74 61.1721 115.294 71.4999 118.571Z" fill="url(#paint0_linear_86_2381)"/>
</g>
<defs>
<linearGradient id="paint0_linear_86_2381" x1="71" y1="-6.99988" x2="71.4999" y2="144.247" gradientUnits="userSpaceOnUse">
<stop stop-color="#FAFAFA" stop-opacity="0.7"/>
<stop offset="1" stop-color="#0ACF83"/>
</linearGradient>
</defs>
</svg>
