<svg width="11" height="12" viewBox="0 0 11 12" fill="none" xmlns="http://www.w3.org/2000/svg">
<path d="M10.9277 10.3444C10.2294 9.11895 9.13911 8.16407 7.83226 7.63352C8.48214 7.14611 8.9622 6.46656 9.20442 5.69116C9.44664 4.91575 9.43874 4.08378 9.18185 3.31311C8.92496 2.54244 8.4321 1.87213 7.77308 1.39713C7.11405 0.922135 6.32229 0.666534 5.50993 0.666534C4.69756 0.666534 3.9058 0.922135 3.24678 1.39713C2.58775 1.87213 2.09489 2.54244 1.838 3.31311C1.58111 4.08378 1.57321 4.91575 1.81543 5.69116C2.05765 6.46656 2.53771 7.14611 3.1876 7.63352C1.88074 8.16407 0.790424 9.11895 0.0921749 10.3444C0.0489089 10.414 0.0200722 10.4916 0.00737934 10.5725C-0.00531353 10.6534 -0.00160358 10.7361 0.0182887 10.8156C0.038181 10.895 0.0738495 10.9697 0.123174 11.0351C0.172498 11.1005 0.234471 11.1554 0.305409 11.1964C0.376346 11.2373 0.4548 11.2636 0.536106 11.2737C0.617412 11.2838 0.699911 11.2774 0.778698 11.2549C0.857484 11.2324 0.93095 11.1944 0.994729 11.1429C1.05851 11.0915 1.1113 11.0278 1.14996 10.9556C2.07278 9.3605 3.70248 8.40916 5.50993 8.40916C7.31737 8.40916 8.94707 9.36101 9.86989 10.9556C9.95368 11.0903 10.0866 11.1872 10.2405 11.2257C10.3944 11.2642 10.5572 11.2414 10.6946 11.162C10.832 11.0826 10.9331 10.953 10.9766 10.8004C11.0201 10.6478 11.0025 10.4843 10.9277 10.3444ZM2.86165 4.53861C2.86165 4.01483 3.01697 3.50282 3.30797 3.06731C3.59896 2.63181 4.01257 2.29237 4.49648 2.09193C4.98038 1.89149 5.51286 1.83904 6.02658 1.94123C6.54029 2.04341 7.01217 2.29563 7.38253 2.666C7.7529 3.03637 8.00513 3.50824 8.10731 4.02196C8.20949 4.53567 8.15705 5.06815 7.95661 5.55206C7.75617 6.03597 7.41673 6.44957 6.98123 6.74057C6.54572 7.03156 6.0337 7.18688 5.50993 7.18688C4.80781 7.18607 4.13468 6.9068 3.63821 6.41033C3.14174 5.91386 2.86246 5.24073 2.86165 4.53861Z" fill="white"/>
</svg>
