<svg width="132" height="132" viewBox="0 0 132 132" fill="none" xmlns="http://www.w3.org/2000/svg">
<g clip-path="url(#clip0_1_80)">
<path d="M103.367 95.9872C102.681 110.828 90.3924 121.544 74.1743 121.544H40.3557V88.221L28.4643 83.0127V131.471H74.0763C97.6633 131.471 115.16 115.351 115.16 94.0225V93.1354C111.623 94.4144 107.693 95.394 103.367 95.9872ZM110.741 44.2798C101.696 24.3283 96.8796 6.23801 84.3949 2.01478C77.124 -0.445149 73.4831 1.51953 70.0435 3.19576C69.7953 3.31378 69.5801 3.49144 69.4172 3.71286C69.2542 3.93429 69.1487 4.1926 69.1099 4.46476C69.0711 4.73691 69.1002 5.01444 69.1948 5.27257C69.2893 5.5307 69.4463 5.76142 69.6517 5.94413C71.6164 7.61492 74.0763 9.683 76.9226 12.3334C66.3101 6.14005 37.0141 -3.09556 34.0699 8.11017C31.414 18.2329 26.8914 33.0741 26.8914 33.0741C26.8914 33.0741 3.69085 30.7175 1.04044 40.5464C-1.61541 50.3752 19.1252 69.2491 53.4336 79.3718C87.7365 89.5 114.377 86.8441 125.876 74.3595C137.376 61.8748 126.268 44.5737 110.741 44.2798ZM103.955 44.4757C101.304 47.0336 92.6509 53.6188 73.679 52.2419C53.3356 50.767 36.6223 38.7776 32.2957 35.436C31.9546 35.2046 31.7014 34.865 31.577 34.472C31.4526 34.079 31.4642 33.6556 31.6099 33.27C31.9038 32.2904 32.2957 30.7175 32.9868 28.6495C33.3787 27.376 34.8535 26.7827 35.9366 27.4739C44.4864 32.3883 58.2501 39.5613 72.8953 40.5464C85.9678 41.4335 93.8319 37.5966 98.9422 34.7449C99.2043 34.607 99.4924 34.5256 99.7879 34.506C100.083 34.4864 100.38 34.529 100.658 34.6311C100.936 34.7331 101.189 34.8924 101.402 35.0985C101.614 35.3047 101.781 35.5532 101.892 35.8279L104.45 42.1192C104.646 43.0008 104.548 43.8879 103.955 44.4757Z" fill="#0ACF83"/>
</g>
<defs>
<clipPath id="clip0_1_80">
<rect width="130.616" height="130.616" fill="white" transform="translate(0.410156 0.85498)"/>
</clipPath>
</defs>
</svg>
