<svg width="22" height="20" viewBox="0 0 22 20" fill="none" xmlns="http://www.w3.org/2000/svg">
<g id="message 1" clip-path="url(#clip0_901_497)">
<g id="Group">
<g id="Group_2">
<path id="Vector" d="M1.93086 3.24805H20.0388C21.1035 3.24805 21.9697 3.99962 21.9697 4.92343V14.6325C21.9697 15.5563 21.1035 16.3079 20.0388 16.3079H1.93086C0.86614 16.3079 -8.01086e-05 15.5563 -8.01086e-05 14.6325V4.92343C-8.01086e-05 3.99962 0.86614 3.24805 1.93086 3.24805ZM2.18287 4.36497L2.44059 4.55116L10.2187 10.1708C10.6627 10.4915 11.3071 10.4915 11.7509 10.1708L19.5291 4.55116L19.7868 4.36497H2.18287ZM20.6824 5.17131L14.345 9.75006L20.6824 13.4096V5.17131ZM1.93086 15.191H20.0388C20.3498 15.191 20.6099 14.9986 20.6695 14.7438L13.3129 10.4957L12.5746 11.0291C12.114 11.3619 11.5494 11.5283 10.9848 11.5283C10.4202 11.5283 9.85557 11.3619 9.39493 11.0291L8.65671 10.4957L1.30009 14.7438C1.35973 14.9986 1.61985 15.191 1.93086 15.191ZM1.28721 13.4096L7.62464 9.75009L1.28721 5.17131V13.4096Z" fill="white"/>
</g>
</g>
</g>
<defs>
<clipPath id="clip0_901_497">
<rect width="21.9698" height="19.0621" fill="white" transform="matrix(-1 0 0 1 21.9697 0.246094)"/>
</clipPath>
</defs>
</svg>
