<svg width="32" height="20" viewBox="0 0 32 20" fill="none" xmlns="http://www.w3.org/2000/svg">
<g id="padlock 1" clip-path="url(#clip0_838_1312)">
<g id="Group">
<g id="Group_2">
<path id="Vector" d="M24.3747 8.10851V5.08977C24.3882 3.72386 23.4762 2.41048 21.8481 1.45273C20.274 0.51518 18.2135 0.00195312 16.0314 0.00195312C15.9976 0.00195312 15.9571 0.00195312 15.9233 0.00195312C11.2686 0.00599428 7.48539 2.2852 7.48539 5.08977V8.10851C5.7289 8.23378 4.44531 9.11475 4.44531 10.1816V16.9627C4.44531 18.1144 5.98562 19.0641 7.911 19.0641H23.9559C25.8812 19.0641 27.4216 18.1144 27.4216 16.9627V10.1816C27.4148 9.1188 26.1312 8.23378 24.3747 8.10851ZM8.82978 5.08977H8.83654C8.83654 2.72973 12.0185 0.79806 15.9301 0.79806H15.9368C17.7946 0.794019 19.5781 1.23451 20.8955 2.01849C22.2669 2.83076 23.0303 3.93804 23.0168 5.08977V8.11255H21.5306V5.08977C21.5441 4.17242 20.9361 3.29145 19.8484 2.64487C18.8215 2.03061 17.4298 1.68307 15.9773 1.68307H15.9368C12.8292 1.68307 10.316 3.21063 10.316 5.08572V8.11255H8.82978V5.08977ZM20.1862 5.08977V8.11255H11.6739V5.08977C11.6739 3.6592 13.5791 2.49534 15.9436 2.49534H15.9841C17.0785 2.49534 18.1324 2.75802 18.9093 3.22275C19.7335 3.71577 20.1997 4.39065 20.1862 5.08977ZM26.1312 16.9748C26.1312 17.682 25.1719 18.2558 23.9896 18.2558H7.93803C6.75577 18.2558 5.79646 17.682 5.79646 16.9748V10.2018C5.79646 9.49462 6.75577 8.92078 7.93803 8.92078H23.9896C25.1719 8.92078 26.1312 9.49462 26.1312 10.2018V16.9748Z" fill="white"/>
</g>
</g>
<g id="Group_3">
<g id="Group_4">
<path id="Vector_2" d="M18.2675 13.3379C17.9703 12.7116 17.0177 12.2832 15.93 12.2832C14.5856 12.2832 13.4912 12.9338 13.4912 13.7421C13.4912 14.3927 14.2073 14.9625 15.2545 15.1403V16.2718C15.2545 16.4941 15.5585 16.6759 15.93 16.6759C16.3016 16.6759 16.6056 16.4941 16.6056 16.2718V15.1403C17.8959 14.918 18.6458 14.1098 18.2675 13.3379ZM15.93 14.3886C15.3288 14.3886 14.8424 14.0977 14.8424 13.738C14.8424 13.3784 15.3288 13.0874 15.93 13.0874C16.5313 13.0874 17.0177 13.3784 17.0177 13.738C17.0177 14.0977 16.5313 14.3886 15.93 14.3886Z" fill="white"/>
</g>
</g>
</g>
<defs>
<clipPath id="clip0_838_1312">
<rect width="31.8668" height="19.0621" fill="white" transform="translate(0 0.00195312)"/>
</clipPath>
</defs>
</svg>
